<svg version="1.1" id="Layer_1" xmlns="http://www.w3.org/2000/svg" xmlns:xlink="http://www.w3.org/1999/xlink" x="0px" y="0px"
	 width="100%" viewBox="0 0 1024 1024" enable-background="new 0 0 1024 1024" xml:space="preserve">
<path fill="#000000" opacity="1.000000" stroke="none" 
	d="
M765.445557,532.449219 
	C803.476440,557.166992 830.434448,590.670959 848.459534,631.653137 
	C858.754456,655.059937 866.385986,679.295532 869.158386,704.740540 
	C874.466125,753.454834 864.498779,798.380676 832.127930,836.282532 
	C809.548096,862.720581 780.822571,879.381714 745.649170,883.379395 
	C734.736328,884.619690 734.719299,884.470337 731.847290,895.067505 
	C726.854675,913.488831 712.027283,924.276367 691.010315,924.324951 
	C645.344055,924.430420 599.677307,924.367371 554.010803,924.366882 
	C479.510986,924.366089 405.011169,924.395020 330.511414,924.315369 
	C320.372253,924.304504 310.739349,922.294922 302.467712,915.714966 
	C293.590118,908.652893 289.240021,899.219910 287.742371,888.329712 
	C287.305084,885.150024 286.403076,883.576050 282.988525,883.317078 
	C256.096771,881.278198 232.416382,871.106201 211.516190,854.350586 
	C179.797913,828.922180 160.856079,795.592773 155.006866,755.780823 
	C145.755051,692.809570 161.879822,635.765259 199.336258,584.615662 
	C217.429672,559.907715 240.235397,540.478638 267.080383,525.833496 
	C270.961548,523.716187 270.892456,521.887878 268.826019,518.463440 
	C257.164612,499.138458 247.773926,478.757172 241.805008,456.946991 
	C233.673996,427.236694 234.560867,397.367981 242.047455,367.770081 
	C256.898071,309.058807 282.292084,255.130585 316.968140,205.513672 
	C335.940613,178.366562 357.284576,153.369080 382.687256,131.987518 
	C412.336365,107.031708 445.419373,88.815666 483.717072,81.090286 
	C510.203247,75.747498 535.963989,79.422165 561.162903,88.273521 
	C587.751465,97.613007 611.043152,112.563774 632.583740,130.489944 
	C665.912292,158.226028 691.665833,192.265442 714.197327,228.906616 
	C738.540588,268.494141 758.205261,310.290222 771.703430,354.838318 
	C778.900024,378.588989 781.742371,403.012329 780.201050,427.733948 
	C778.653137,452.561310 771.668884,476.082184 760.427551,498.292358 
	C756.311340,506.425110 752.039490,514.479126 747.680847,522.873047 
	C753.763123,526.137756 759.452759,529.191650 765.445557,532.449219 
M520.049683,111.411400 
	C509.754028,111.400223 499.475922,110.709618 489.229126,112.898842 
	C463.148346,118.471024 440.211700,130.672592 418.893524,146.124084 
	C392.516815,165.242035 370.527893,188.819565 350.753906,214.576782 
	C314.342499,262.005493 287.273254,314.044281 272.741882,372.280701 
	C267.794708,392.107239 265.297577,412.200928 268.607849,432.531464 
	C275.845825,476.984436 298.471588,512.533752 332.951569,540.751831 
	C349.548004,554.334106 368.216614,564.571045 388.492035,571.777344 
	C394.580017,573.941040 398.782684,577.974487 399.299469,584.774536 
	C400.245178,597.217773 390.444672,604.933838 377.633911,601.871155 
	C369.970032,600.038879 362.926544,596.584595 355.931641,593.094849 
	C333.912598,582.109619 315.100433,566.824646 298.001343,549.333496 
	C295.341827,546.612976 293.273346,546.365601 289.807068,548.045288 
	C267.082367,559.057373 247.721893,574.319580 232.020905,593.999451 
	C199.230743,635.099060 179.581970,680.808777 183.236450,734.674255 
	C184.397186,751.782776 187.854630,768.293945 194.779236,783.878784 
	C208.585999,814.952759 232.203140,835.947571 263.430084,848.706604 
	C269.652954,851.249207 275.928223,853.738708 283.193237,853.935242 
	C281.313629,840.377014 279.505554,827.249878 277.671448,814.126343 
	C275.469238,798.368958 273.200439,782.620850 271.042542,766.857422 
	C268.861115,750.922241 266.733887,734.979248 264.668335,719.028625 
	C262.731323,704.070557 260.797638,689.110718 259.059998,674.128723 
	C257.027618,656.605164 260.360352,640.926208 275.307190,629.556396 
	C284.719543,622.396484 295.693146,619.769836 307.177246,619.715393 
	C348.339905,619.520203 389.504028,619.635803 430.667603,619.626343 
	C437.628510,619.624756 438.043030,618.958923 438.701752,612.059875 
	C439.631287,602.324402 440.781219,592.600769 442.187988,582.923096 
	C443.204773,575.927979 443.070343,575.332886 436.357452,573.388672 
	C378.170685,556.535339 338.513763,518.863892 315.157684,463.804413 
	C303.324524,435.909058 299.938965,406.448364 304.891205,376.354675 
	C308.200928,356.242065 314.792725,337.142883 322.935791,318.457214 
	C339.101654,281.362030 366.621552,256.286560 403.356750,240.488358 
	C438.582062,225.339447 475.278290,218.643051 513.620178,219.469620 
	C535.832520,219.948502 557.692444,222.297531 579.166382,227.755569 
	C603.898743,234.041824 627.146912,243.691391 647.243042,259.902863 
	C674.904175,282.216888 691.270630,312.016357 703.330078,344.646393 
	C713.606873,372.453186 717.943237,401.085815 712.014771,430.335876 
	C699.580505,491.685333 664.683716,536.006104 608.526733,563.574890 
	C597.802551,568.839661 586.523865,572.748657 574.884460,576.099854 
	C576.063110,588.556519 577.367920,600.584045 578.275696,612.641479 
	C578.771362,619.226135 578.841003,619.627991 585.573975,619.629150 
	C625.904297,619.636292 666.234558,619.638245 706.564880,619.630310 
	C711.723938,619.629272 716.835327,619.846924 721.973816,620.610291 
	C740.798767,623.406982 755.895813,636.270020 760.029480,653.560303 
	C762.109253,662.259949 761.240601,670.996765 760.491638,679.827942 
	C759.187134,695.209412 756.780945,710.438660 754.950439,725.743713 
	C753.001404,742.039856 750.544250,758.274963 748.344543,774.541504 
	C746.434021,788.669312 744.549316,802.800842 742.697754,816.936462 
	C741.044067,829.561340 739.451233,842.194214 737.760864,855.374695 
	C741.569824,854.701233 744.837280,854.328003 747.998901,853.533203 
	C785.537048,844.096863 813.187744,822.597168 828.279785,786.467957 
	C839.605835,759.354248 840.631836,730.883606 837.225769,702.164368 
	C834.781494,681.555115 828.663940,661.902100 819.645752,643.189697 
	C799.785645,601.980530 772.018677,568.344849 729.527039,548.641174 
	C725.328979,546.694519 722.848755,547.198547 719.545532,550.322327 
	C698.955017,569.794434 676.187500,586.165710 650.058960,597.500732 
	C642.892883,600.609497 635.624268,603.516785 627.561584,603.367859 
	C619.279053,603.214722 612.950500,598.281189 611.748291,590.893982 
	C610.397766,582.594910 614.071533,576.081848 622.214783,573.395874 
	C634.437683,569.364380 646.165588,564.286865 657.259583,557.782349 
	C691.466675,537.726501 719.664734,511.788086 736.781189,475.315735 
	C745.640198,456.438599 750.703979,436.414673 750.457703,415.549469 
	C750.265625,399.279205 747.135742,383.254303 743.108521,367.421997 
	C732.831665,327.021454 715.490601,289.849640 693.101135,254.808075 
	C673.946289,224.829117 653.225647,196.152390 627.710815,171.179657 
	C610.230042,154.070267 590.729858,139.616516 569.427307,127.694946 
	C554.359192,119.262367 538.039490,114.133270 520.049683,111.411400 
M326.668030,892.022400 
	C330.279602,893.558350 334.075195,893.670898 337.933167,893.670044 
	C453.744110,893.643738 569.555054,893.648865 685.365967,893.648621 
	C686.532410,893.648621 687.701233,893.689453 688.864807,893.630127 
	C696.341431,893.248901 702.060242,888.706116 703.927063,881.365479 
	C705.891846,873.639832 706.609680,865.696045 707.653442,857.813293 
	C709.524170,843.686096 711.393005,829.558655 713.263611,815.431396 
	C715.395935,799.328430 717.567627,783.230530 719.650818,767.121216 
	C721.500122,752.820129 723.264587,738.508118 725.043030,724.197998 
	C727.353821,705.604614 730.196594,687.059937 730.699768,668.289368 
	C730.990479,657.445862 724.944397,651.390259 713.880554,651.362488 
	C577.908203,651.021423 441.935730,650.766968 305.963348,651.358826 
	C295.716797,651.403442 288.982758,657.719666 289.468048,667.824463 
	C290.024170,679.405457 291.278809,690.967529 292.614990,702.493164 
	C294.675568,720.267517 297.088104,738.000916 299.306183,755.757263 
	C301.730835,775.166809 303.990356,794.597656 306.532288,813.991638 
	C309.008362,832.883179 311.736145,851.741760 314.382294,870.610779 
	C315.572632,879.098755 316.688782,887.656189 326.668030,892.022400 
M384.728973,436.042023 
	C372.608429,430.664154 365.217529,420.890656 359.757294,409.281372 
	C354.694885,398.517822 351.762268,387.136200 349.592651,375.501099 
	C349.015930,372.408356 348.238342,369.168671 344.386047,368.360229 
	C339.849792,367.408203 337.263092,369.662201 336.371338,375.444916 
	C333.963348,391.060272 334.933807,406.710175 337.657196,422.071259 
	C345.589020,466.810242 368.877686,501.607086 407.773773,525.255798 
	C447.787018,549.583679 491.768188,556.026184 537.476379,550.243408 
	C570.524353,546.062317 600.724854,533.717773 626.893311,512.476685 
	C648.220581,495.165222 663.698730,473.747162 672.900330,447.821808 
	C681.108276,424.696014 682.186035,400.711273 681.644043,376.517365 
	C681.593384,374.254669 680.789551,372.253174 679.646729,370.425323 
	C677.480286,366.960571 674.153320,366.687622 671.327698,369.601349 
	C669.640625,371.341064 668.681213,373.501984 668.446594,375.841553 
	C667.286316,387.410889 663.683777,398.176178 658.534851,408.569489 
	C651.193604,423.388031 640.304443,433.870361 623.969360,437.921936 
	C608.582947,441.738251 593.104126,441.538544 577.528381,438.876129 
	C558.602722,435.641052 545.209045,425.208344 535.830566,408.690491 
	C529.468384,397.485107 524.778320,385.604767 519.861572,373.773895 
	C516.260132,365.107819 507.295929,364.170258 501.730133,371.656433 
	C499.627686,374.484314 498.407318,377.782593 497.180511,381.065979 
	C493.220398,391.664673 489.272980,402.256134 483.727417,412.187744 
	C477.299500,423.699524 468.322784,432.194305 455.737946,436.487518 
	C432.307800,444.480560 408.856201,444.951721 384.728973,436.042023 
M529.120850,302.117065 
	C518.641113,302.314423 508.194550,302.152405 497.699860,301.627777 
	C480.917816,300.788788 464.306000,298.460083 447.591614,297.103180 
	C429.146820,295.605774 410.842163,294.626923 392.386017,297.225037 
	C378.041138,299.244415 366.277710,304.528015 359.446655,318.048645 
	C358.153809,320.607574 355.582245,322.582458 355.536804,326.109772 
	C456.621887,321.895996 557.334595,322.764160 658.413574,326.819214 
	C658.037720,325.684967 657.858948,324.705811 657.413391,323.868622 
	C652.700073,315.011658 647.206421,306.659058 640.242065,299.419586 
	C631.641174,290.478912 622.250061,282.583954 610.228210,278.442932 
	C607.168030,277.388794 604.521851,277.654083 601.655884,279.091705 
	C593.476440,283.194702 585.328552,287.404480 576.928101,291.013184 
	C561.981750,297.433807 546.105713,300.187958 529.120850,302.117065 
M525.076050,583.916931 
	C509.777649,585.059814 494.512634,584.408325 479.303711,582.695496 
	C475.446198,582.261108 473.550842,582.579102 473.129608,587.123657 
	C472.243988,596.678833 470.711151,606.174133 469.439362,615.693298 
	C469.072998,618.435608 470.161682,619.697083 473.025055,619.658386 
	C479.516296,619.570679 486.009552,619.633789 492.501984,619.633606 
	C509.149261,619.633179 525.796692,619.588135 542.443604,619.666382 
	C545.872131,619.682495 547.546204,619.291138 546.862976,614.920044 
	C545.382141,605.445557 544.548523,595.861023 543.724487,586.297913 
	C543.460083,583.229736 542.173096,581.799500 539.370422,582.515503 
	C534.939148,583.647339 530.412903,582.984497 525.076050,583.916931 
z"/>
<path fill="#000000" opacity="1.000000" stroke="none" 
	d="
M635.324341,784.350830 
	C618.501221,799.265137 601.918457,813.915161 585.419983,828.659424 
	C576.782349,836.378662 566.211792,836.352722 559.378601,828.397339 
	C553.751770,821.846436 554.439758,812.737671 560.950439,807.052063 
	C575.869934,794.023193 590.762512,780.963501 605.704346,767.960327 
	C606.960693,766.867004 608.504456,766.104004 609.490967,764.750977 
	C609.069275,762.596069 607.764771,761.895935 606.872803,760.981506 
	C596.644226,750.494934 586.378906,740.044250 576.156860,729.551453 
	C569.471924,722.689453 568.735168,711.916382 574.500305,706.246155 
	C580.892883,699.958801 592.147583,699.870483 598.976257,706.631348 
	C614.004517,721.510376 628.234009,737.160095 642.043701,753.167480 
	C648.831055,761.034912 647.984802,772.052124 640.710571,779.356201 
	C639.067383,781.006165 637.306396,782.539001 635.324341,784.350830 
z"/>
<path fill="#000000" opacity="1.000000" stroke="none" 
	d="
M425.213745,771.817627 
	C436.262817,784.293823 447.077271,796.508118 457.878723,808.733887 
	C461.973206,813.368286 462.670990,822.492676 459.342651,827.447754 
	C455.186035,833.635925 446.521942,836.256592 439.362030,833.489014 
	C436.364441,832.330261 433.731598,830.632202 431.630188,828.174927 
	C417.028229,811.100464 402.327545,794.108948 387.877075,776.907288 
	C381.017792,768.742065 381.683838,758.235718 389.463654,751.472290 
	C407.304871,735.961853 425.239227,720.554260 443.348053,705.357849 
	C451.630920,698.407227 463.695862,701.333618 468.192139,710.885986 
	C471.040283,716.936951 469.250854,724.341858 463.411224,729.322266 
	C449.988129,740.770508 436.465668,752.102234 422.982422,763.480042 
	C422.106567,764.219177 421.010162,764.771729 420.792755,766.229370 
	C421.532898,768.418213 423.522430,769.785461 425.213745,771.817627 
z"/>
<path fill="#000000" opacity="1.000000" stroke="none" 
	d="
M531.768127,763.693604 
	C521.338989,786.060730 511.079620,808.092896 500.816193,830.123169 
	C500.394897,831.027405 499.941376,831.916748 499.493134,832.808167 
	C495.117645,841.509949 488.368835,844.326477 479.783936,841.036133 
	C472.160797,838.114441 467.949463,829.692444 470.571381,821.383179 
	C473.938049,810.713745 479.786621,801.110168 484.514709,791.028381 
	C499.079620,759.971436 513.907776,729.037964 528.575073,698.028870 
	C532.266052,690.225464 537.550354,686.985718 546.058533,687.683899 
	C552.578186,688.218811 557.407349,692.444458 558.998047,699.019226 
	C559.817566,702.406250 559.230103,705.604675 557.757812,708.715515 
	C549.140015,726.924561 540.541870,745.143005 531.768127,763.693604 
z"/>
<path fill="#000000" opacity="1.000000" stroke="none" 
	d="
M582.102417,479.034363 
	C567.831482,495.245850 549.294800,502.636780 529.091919,506.227753 
	C504.183868,510.654999 479.793091,507.366058 455.917358,499.553467 
	C453.563141,498.783142 451.248383,497.743835 449.106201,496.500519 
	C441.702118,492.203308 439.080078,485.574921 441.780487,478.443420 
	C444.236298,471.957764 451.787476,468.393341 459.628357,470.095123 
	C475.236450,473.482605 490.941956,476.378571 506.984100,475.552734 
	C522.901306,474.733368 538.298950,471.621246 552.108704,462.961731 
	C555.393799,460.901764 558.660706,458.699036 560.815125,455.562164 
	C566.397156,447.434784 577.263000,448.860199 582.318420,452.180969 
	C588.220642,456.057983 589.897766,465.691986 585.960083,473.398010 
	C584.985596,475.305145 583.557739,476.980621 582.102417,479.034363 
z"/>
</svg>